name rise30.6535peak61.5555fall82.9339.mot
datacolumns 19
datarows 14
range 22.76657800000000 22.78823900000000
endheader
time	ground_force1_vx	ground_force1_vy	ground_force1_vz	ground_force1_px	ground_force1_py	ground_force1_pz	ground_force2_vx	ground_force2_vy	ground_force2_vz	ground_force2_px	ground_force2_py	ground_force2_pz	ground_torque1_x	ground_torque1_y	ground_torque1_z	ground_torque2_x	ground_torque2_y	ground_torque2_z	
22.76657800000000	-1.71274600000000	46.68976900000000	-10.34318400000000	0.34612700000000	0.00000000000000	0.08320500000000	-43.22495900000000	824.20712800000001	-58.33309700000000	0.16774900000000	0.00000000000000	-0.10369400000000	0.00000000000000	-8.22349500000000	0.00000000000000	0.00000000000000	-26.37563600000000	0.00000000000000	
22.76824300000000	-1.71355100000000	53.47074700000000	-11.39846600000000	0.35213700000000	0.00000000000000	0.08368900000000	-43.95672700000000	822.00555999999995	-58.04829400000000	0.16686900000000	0.00000000000000	-0.10353900000000	0.00000000000000	-9.15386600000000	0.00000000000000	0.00000000000000	-26.31249200000000	0.00000000000000	
22.76990500000000	-1.64544300000000	60.20868200000000	-12.32805100000000	0.35769100000000	0.00000000000000	0.08414100000000	-44.70734700000000	819.64206400000000	-57.73934100000000	0.16599800000000	0.00000000000000	-0.10338000000000	0.00000000000000	-9.99711500000000	0.00000000000000	0.00000000000000	-26.24869700000000	0.00000000000000	
22.77158200000000	-1.50408800000000	66.83620900000000	-13.11560500000000	0.36284700000000	0.00000000000000	0.08456400000000	-45.47623300000000	817.11411799999996	-57.40602000000000	0.16513700000000	0.00000000000000	-0.10321700000000	0.00000000000000	-10.73791400000000	0.00000000000000	0.00000000000000	-26.18421700000000	0.00000000000000	
22.77323900000000	-1.28751200000000	73.31091000000001	-13.75299400000000	0.36765100000000	0.00000000000000	0.08496400000000	-46.26268800000000	814.41921200000002	-57.04813800000000	0.16428600000000	0.00000000000000	-0.10304900000000	0.00000000000000	-11.36754400000000	0.00000000000000	0.00000000000000	-26.11900100000000	0.00000000000000	
22.77491300000000	-0.99587700000000	79.61490900000000	-14.23971700000000	0.37214200000000	0.00000000000000	0.08534300000000	-47.06590600000000	811.55485099999999	-56.66553400000000	0.16344600000000	0.00000000000000	-0.10287800000000	0.00000000000000	-11.88360100000000	0.00000000000000	0.00000000000000	-26.05297400000000	0.00000000000000	
22.77657300000000	-0.63111600000000	85.75251500000000	-14.58181400000000	0.37635300000000	0.00000000000000	0.08570400000000	-47.88496900000000	808.51856399999997	-56.25807600000000	0.16261600000000	0.00000000000000	-0.10270200000000	0.00000000000000	-12.28924300000000	0.00000000000000	0.00000000000000	-25.98604600000000	0.00000000000000	
22.77824100000000	-0.19650300000000	91.74645099999999	-14.79042700000000	0.38030900000000	0.00000000000000	0.08605000000000	-48.71884900000000	805.30790999999999	-55.82566600000000	0.16179900000000	0.00000000000000	-0.10252200000000	0.00000000000000	-12.59209100000000	0.00000000000000	0.00000000000000	-25.91810500000000	0.00000000000000	
22.77991200000000	0.30381300000000	97.63323000000000	-14.88018800000000	0.38403400000000	0.00000000000000	0.08638300000000	-49.56640500000000	801.92048499999999	-55.36823700000000	0.16099300000000	0.00000000000000	-0.10233800000000	0.00000000000000	-12.80296700000000	0.00000000000000	0.00000000000000	-25.84901800000000	0.00000000000000	
22.78157800000000	0.86525000000000	103.45820200000000	-14.86761400000000	0.38754700000000	0.00000000000000	0.08670400000000	-50.42638500000000	798.35393299999998	-54.88575800000000	0.16019900000000	0.00000000000000	-0.10215000000000	0.00000000000000	-12.93457200000000	0.00000000000000	0.00000000000000	-25.77863300000000	0.00000000000000	
22.78324500000000	1.48319000000000	109.27074200000000	-14.76961300000000	0.39086400000000	0.00000000000000	0.08701500000000	-51.29742600000000	794.60594900000001	-54.37823700000000	0.15941800000000	0.00000000000000	-0.10195800000000	0.00000000000000	-13.00024800000000	0.00000000000000	0.00000000000000	-25.70678000000000	0.00000000000000	
22.78491100000000	2.15330300000000	115.11992900000000	-14.60222800000000	0.39399800000000	0.00000000000000	0.08731600000000	-52.17805600000000	790.67429600000003	-53.84571800000000	0.15864900000000	0.00000000000000	-0.10176100000000	0.00000000000000	-13.01289000000000	0.00000000000000	0.00000000000000	-25.63327000000000	0.00000000000000	
22.78657300000000	2.87178300000000	121.05098099999999	-14.37965700000000	0.39696300000000	0.00000000000000	0.08760900000000	-53.06669600000000	786.55680800000005	-53.28828300000000	0.15789300000000	0.00000000000000	-0.10156100000000	0.00000000000000	-12.98408600000000	0.00000000000000	0.00000000000000	-25.55789400000000	0.00000000000000	
22.78823900000000	3.63549800000000	127.10257799999999	-14.11358900000000	0.39976800000000	0.00000000000000	0.08789500000000	-53.96166000000000	782.25140699999997	-52.70606000000000	0.15715100000000	0.00000000000000	-0.10135600000000	0.00000000000000	-12.92350600000000	0.00000000000000	0.00000000000000	-25.48042600000000	0.00000000000000	
